<svg xmlns="http://www.w3.org/2000/svg" xmlns:xlink="http://www.w3.org/1999/xlink" width="97" height="97" viewBox="0 0 97 97">
  <defs>
    <style>
      .cls-1 {
        fill: #fff;
      }

      .cls-2 {
        filter: url(#Ellipse_3);
      }
    </style>
    <filter id="Ellipse_3" x="0" y="0" width="97" height="97" filterUnits="userSpaceOnUse">
      <feOffset dy="3" input="SourceAlpha"/>
      <feGaussianBlur stdDeviation="3" result="blur"/>
      <feFlood flood-opacity="0.341"/>
      <feComposite operator="in" in2="blur"/>
      <feComposite in="SourceGraphic"/>
    </filter>
  </defs>
  <g id="Group_3" data-name="Group 3" transform="translate(271 51)">
    <g class="cls-2" transform="matrix(1, 0, 0, 1, -271, -51)">
      <circle id="Ellipse_3-2" data-name="Ellipse 3" class="cls-1" cx="39.5" cy="39.5" r="39.5" transform="translate(9 6)"/>
    </g>
    <path id="Icon_zocial-facebook" data-name="Icon zocial-facebook" d="M13.257,19.332V12.457H18.8V9a9.047,9.047,0,0,1,2.429-6.372A7.727,7.727,0,0,1,27.117,0h5.508V6.876H27.117a1.213,1.213,0,0,0-.971.594,2.412,2.412,0,0,0-.432,1.458v3.528h6.911v6.875H25.713V36H18.8V19.332Z" transform="translate(-245.652 -23)"/>
  </g>
</svg>
