<svg xmlns="http://www.w3.org/2000/svg" xmlns:xlink="http://www.w3.org/1999/xlink" width="97" height="97" viewBox="0 0 97 97">
  <defs>
    <style>
      .cls-1 {
        fill: #fff;
      }

      .cls-2 {
        filter: url(#Ellipse_1);
      }
    </style>
    <filter id="Ellipse_1" x="0" y="0" width="97" height="97" filterUnits="userSpaceOnUse">
      <feOffset dy="3" input="SourceAlpha"/>
      <feGaussianBlur stdDeviation="3" result="blur"/>
      <feFlood flood-opacity="0.341"/>
      <feComposite operator="in" in2="blur"/>
      <feComposite in="SourceGraphic"/>
    </filter>
  </defs>
  <g id="Group_1" data-name="Group 1" transform="translate(404 154)">
    <g class="cls-2" transform="matrix(1, 0, 0, 1, -404, -154)">
      <circle id="Ellipse_1-2" data-name="Ellipse 1" class="cls-1" cx="39.5" cy="39.5" r="39.5" transform="translate(9 6)"/>
    </g>
    <path id="Icon_awesome-google" data-name="Icon awesome-google" d="M34.313,18.408c0,9.949-6.813,17.03-16.875,17.03a17.438,17.438,0,0,1,0-34.875A16.769,16.769,0,0,1,29.13,5.126L24.384,9.689C18.176,3.7,6.63,8.2,6.63,18A10.923,10.923,0,0,0,17.438,29.011c6.9,0,9.492-4.95,9.9-7.516h-9.9v-6h16.6A15.287,15.287,0,0,1,34.313,18.408Z" transform="translate(-372.9 -126)"/>
  </g>
</svg>
