<svg xmlns="http://www.w3.org/2000/svg" xmlns:xlink="http://www.w3.org/1999/xlink" width="97" height="97" viewBox="0 0 97 97">
  <defs>
    <style>
      .cls-1 {
        fill: #fff;
      }

      .cls-2 {
        filter: url(#Ellipse_2);
      }
    </style>
    <filter id="Ellipse_2" x="0" y="0" width="97" height="97" filterUnits="userSpaceOnUse">
      <feOffset dy="3" input="SourceAlpha"/>
      <feGaussianBlur stdDeviation="3" result="blur"/>
      <feFlood flood-opacity="0.341"/>
      <feComposite operator="in" in2="blur"/>
      <feComposite in="SourceGraphic"/>
    </filter>
  </defs>
  <g id="Group_2" data-name="Group 2" transform="translate(-12 38)">
    <g class="cls-2" transform="matrix(1, 0, 0, 1, 12, -38)">
      <circle id="Ellipse_2-2" data-name="Ellipse 2" class="cls-1" cx="39.5" cy="39.5" r="39.5" transform="translate(9 6)"/>
    </g>
    <path id="Icon_zocial-linkedin" data-name="Icon zocial-linkedin" d="M-.18,4.356a3.877,3.877,0,0,1,1.26-2.97A4.623,4.623,0,0,1,4.356.216a4.485,4.485,0,0,1,3.2,1.152,4.06,4.06,0,0,1,1.26,3.1A3.791,3.791,0,0,1,7.6,7.344,4.631,4.631,0,0,1,4.284,8.532H4.248a4.406,4.406,0,0,1-3.2-1.188A3.99,3.99,0,0,1-.18,4.356Zm.468,31.5V11.808H8.28V35.856H.288Zm12.42,0H20.7V22.428a5.183,5.183,0,0,1,.288-1.944,5.221,5.221,0,0,1,1.53-2.07,3.911,3.911,0,0,1,2.574-.846q4.032,0,4.032,5.436V35.856h7.992V22.068q0-5.328-2.52-8.082a8.6,8.6,0,0,0-6.66-2.754,8.17,8.17,0,0,0-7.236,4V15.3h-.036l.036-.072v-3.42H12.708q.072,1.152.072,7.164t-.072,16.884Z" transform="translate(42.28 -10.216)"/>
  </g>
</svg>
