<svg xmlns="http://www.w3.org/2000/svg" xmlns:xlink="http://www.w3.org/1999/xlink" width="1920" height="1080" viewBox="0 0 1920 1080">
  <defs>
    <style>
      .cls-1 {
        clip-path: url(#clip-Web_1920_1);
      }

      .cls-2 {
        opacity: 0.9;
        fill: url(#linear-gradient);
      }

      .cls-3 {
        opacity: 0.6;
      }

      .cls-4, .cls-5, .cls-6, .cls-9 {
        fill: none;
      }

      .cls-4, .cls-5 {
        stroke: #e4e2d7;
      }

      .cls-4 {
        stroke-width: 2px;
      }

      .cls-6 {
        stroke: #707070;
      }

      .cls-7 {
        fill: #fff;
        stroke: #272727;
        stroke-width: 3px;
      }

      .cls-8 {
        stroke: none;
      }

      .cls-10 {
        fill: #e4e2d7;
      }
    </style>
    <linearGradient id="linear-gradient" x1="1" y1="0.479" x2="0.009" y2="0.482" gradientUnits="objectBoundingBox">
      <stop offset="0" stop-color="#272727"/>
      <stop offset="1" stop-color="#e4e2d7"/>
    </linearGradient>
    <clipPath id="clip-Web_1920_1">
      <rect width="1920" height="1080"/>
    </clipPath>
  </defs>
  <g id="Web_1920_1" data-name="Web 1920 – 1" class="cls-1">
    <rect class="cls-10" width="1920" height="1080"/>
    <rect id="Rectangle_1" data-name="Rectangle 1" class="cls-2" width="1033" height="1080" transform="translate(887 0)"/>
    <g id="Lines" class="cls-3">
      <line id="Line_1" data-name="Line 1" class="cls-4" y1="20" x2="331" transform="translate(1427.5 149.5)"/>
      <line id="Line_2" data-name="Line 2" class="cls-5" x1="175" y2="383" transform="translate(1221.5 183.5)"/>
      <line id="Line_3" data-name="Line 3" class="cls-5" x1="229" y2="271" transform="translate(973.5 599.5)"/>
      <line id="Line_4" data-name="Line 4" class="cls-6" x1="506" y2="76" transform="translate(434.5 892.5)"/>
      <line id="Line_5" data-name="Line 5" class="cls-6" x1="295" y1="145" transform="translate(102.5 814.5)"/>
      <line id="Line_6" data-name="Line 6" class="cls-6" x1="112" y1="20" transform="translate(-42.5 774.5)"/>
      <line id="Line_7" data-name="Line 7" class="cls-5" y1="195" x2="89" transform="translate(1413.5 -45.5)"/>
      <line id="Line_8" data-name="Line 8" class="cls-5" y1="86" x2="194" transform="translate(1798.5 58.5)"/>
      <line id="Line_9" data-name="Line 9" class="cls-5" x1="89" y2="246" transform="translate(1689.5 169.5)"/>
      <line id="Line_10" data-name="Line 10" class="cls-5" x2="170" y2="227" transform="translate(1694.5 450.5)"/>
      <line id="Line_18" data-name="Line 18" class="cls-6" x2="164" y2="121" transform="translate(424.5 982.5)"/>
      <line id="Line_11" data-name="Line 11" class="cls-5" x1="155" y2="123" transform="translate(1700.5 713.5)"/>
      <line id="Line_12" data-name="Line 12" class="cls-5" x1="73" y2="214" transform="translate(1611.5 866.5)"/>
      <line id="Line_13" data-name="Line 13" class="cls-5" x2="137" y2="236" transform="translate(1698.5 859.5)"/>
      <line id="Line_14" data-name="Line 14" class="cls-5" x1="281" y2="113" transform="translate(1383.5 846.5)"/>
      <line id="Line_15" data-name="Line 15" class="cls-5" x1="141" y1="349" transform="translate(1219.5 599.5)"/>
      <line id="Line_16" data-name="Line 16" class="cls-5" x1="13" y2="122" transform="translate(1347.5 988.5)"/>
      <line id="Line_17" data-name="Line 17" class="cls-5" x1="374" y1="76" transform="translate(973.5 892.5)"/>
      <line id="Line_19" data-name="Line 19" class="cls-5" x1="168" y2="131" transform="translate(1421.5 25.5)"/>
      <line id="Line_20" data-name="Line 20" class="cls-5" x2="169" y2="74" transform="translate(1604.5 25.5)"/>
      <line id="Line_22" data-name="Line 22" class="cls-5" x2="2" y2="16" transform="translate(1778.5 113.5)"/>
      <line id="Line_23" data-name="Line 23" class="cls-5" y1="67" x2="243" transform="translate(1423.5 443.5)"/>
      <line id="Line_24" data-name="Line 24" class="cls-5" x2="157" y2="97" transform="translate(1423.5 519.5)"/>
      <line id="Line_25" data-name="Line 25" class="cls-5" x1="178" y2="63" transform="translate(1231.5 519.5)"/>
      <line id="Line_26" data-name="Line 26" class="cls-5" x2="58" y2="176" transform="translate(1821.5 510.5)"/>
      <line id="Line_27" data-name="Line 27" class="cls-5" x1="120" y1="64" transform="translate(1701.5 430.5)"/>
      <line id="Line_28" data-name="Line 28" class="cls-6" x1="103" y1="76" transform="translate(1567.5 346.5)"/>
      <line id="Line_29" data-name="Line 29" class="cls-5" x1="128" y2="161" transform="translate(1417.5 341.5)"/>
      <line id="Line_30" data-name="Line 30" class="cls-5" y1="121" x2="52" transform="translate(1785.5 -21.5)"/>
      <line id="Line_31" data-name="Line 31" class="cls-5" x2="124" y2="136" transform="translate(1421.5 180.5)"/>
      <line id="Line_32" data-name="Line 32" class="cls-5" y1="58" x2="67" transform="translate(1513.5 628.5)"/>
      <line id="Line_33" data-name="Line 33" class="cls-5" x2="86" y2="203" transform="translate(1591.5 628.5)"/>
      <line id="Line_34" data-name="Line 34" class="cls-5" x1="120" y1="39" transform="translate(1701.5 852.5)"/>
      <line id="Line_35" data-name="Line 35" class="cls-5" y1="176" x2="38" transform="translate(1829.5 715.5)"/>
      <line id="Line_36" data-name="Line 36" class="cls-5" y1="37" x2="155" transform="translate(1837.5 862.5)"/>
      <line id="Line_37" data-name="Line 37" class="cls-5" y1="137" x2="132" transform="translate(1540.5 858.5)"/>
      <line id="Line_38" data-name="Line 38" class="cls-5" x2="60" transform="translate(1467.5 1000.5)"/>
      <line id="Line_39" data-name="Line 39" class="cls-5" x1="65" y1="23" transform="translate(1384.5 977.5)"/>
      <line id="Line_40" data-name="Line 40" class="cls-5" x2="51" y2="81" transform="translate(1462.5 1012.5)"/>
      <line id="Line_41" data-name="Line 41" class="cls-5" x2="182" y2="125" transform="translate(1170.5 831.5)"/>
      <line id="Line_42" data-name="Line 42" class="cls-5" y1="211" x2="33" transform="translate(1174.5 603.5)"/>
      <line id="Line_43" data-name="Line 43" class="cls-5" y1="11" x2="230" transform="translate(1179.5 814.5)"/>
      <line id="Line_44" data-name="Line 44" class="cls-5" y2="286" transform="translate(1417.5 519.5)"/>
      <line id="Line_45" data-name="Line 45" class="cls-6" x2="48" y2="77" transform="translate(966.5 900.5)"/>
      <line id="Line_46" data-name="Line 46" class="cls-6" y1="48" x2="91" transform="translate(915.5 989.5)"/>
      <line id="Line_47" data-name="Line 47" class="cls-6" x1="210" y2="23" transform="translate(796.5 977.5)"/>
      <line id="Line_48" data-name="Line 48" class="cls-6" x1="355" y1="31" transform="translate(428.5 977.5)"/>
      <line id="Line_49" data-name="Line 49" class="cls-6" y1="73" x2="115" transform="translate(428.5 879.5)"/>
      <line id="Line_50" data-name="Line 50" class="cls-6" x2="380" transform="translate(560.5 879.5)"/>
      <line id="Line_51" data-name="Line 51" class="cls-6" y1="13" x2="270" transform="translate(125.5 970.5)"/>
      <line id="Line_52" data-name="Line 52" class="cls-6" x2="117" y2="117" transform="translate(125.5 993.5)"/>
      <line id="Line_53" data-name="Line 53" class="cls-6" x1="167" y2="69" transform="translate(-56.5 983.5)"/>
      <line id="Line_54" data-name="Line 54" class="cls-6" x2="34" y2="71" transform="translate(920.5 1053.5)"/>
      <line id="Line_55" data-name="Line 55" class="cls-5" x1="16" y1="231" transform="translate(1191.5 337.5)"/>
      <line id="Line_56" data-name="Line 56" class="cls-5" y1="155" x2="191" transform="translate(1197.5 169.5)"/>
      <line id="Line_57" data-name="Line 57" class="cls-5" x2="154" y2="22" transform="translate(1236.5 137.5)"/>
      <line id="Line_58" data-name="Line 58" class="cls-5" x1="31" y2="183" transform="translate(1190.5 137.5)"/>
      <line id="Line_59" data-name="Line 59" class="cls-5" x1="81" y1="44" transform="translate(1147.5 82.5)"/>
      <line id="Line_60" data-name="Line 60" class="cls-5" y1="118" x2="120" transform="translate(1143.5 -50.5)"/>
      <line id="Line_61" data-name="Line 61" class="cls-6" x1="213" y1="12" transform="translate(902.5 55.5)"/>
      <line id="Line_62" data-name="Line 62" class="cls-6" x1="95" y1="71" transform="translate(803.5 -22.5)"/>
      <line id="Line_63" data-name="Line 63" class="cls-6" x2="63" y2="195" transform="translate(892.5 67.5)"/>
      <line id="Line_64" data-name="Line 64" class="cls-5" x2="204" y2="39" transform="translate(978.5 286.5)"/>
      <line id="Line_65" data-name="Line 65" class="cls-6" x2="15" y2="182" transform="translate(963.5 299.5)"/>
      <line id="Line_66" data-name="Line 66" class="cls-6" x1="52" y2="111" transform="translate(926.5 498.5)"/>
      <line id="Line_67" data-name="Line 67" class="cls-5" y1="32" x2="259" transform="translate(937.5 591.5)"/>
      <line id="Line_70" data-name="Line 70" class="cls-6" y1="75" x2="173" transform="translate(798.5 493.5)"/>
      <line id="Line_72" data-name="Line 72" class="cls-6" y2="172" transform="translate(788.5 572.5)"/>
      <line id="Line_73" data-name="Line 73" class="cls-6" y1="101" x2="118" transform="translate(793.5 643.5)"/>
      <line id="Line_74" data-name="Line 74" class="cls-6" x2="38" y2="226" transform="translate(918.5 643.5)"/>
      <line id="Line_75" data-name="Line 75" class="cls-6" x1="211" y1="48" transform="translate(573.5 708.5)"/>
      <line id="Line_76" data-name="Line 76" class="cls-6" x1="10" y2="159" transform="translate(549.5 715.5)"/>
      <line id="Line_77" data-name="Line 77" class="cls-6" x2="61" y2="88" transform="translate(488.5 593.5)"/>
      <line id="Line_78" data-name="Line 78" class="cls-6" y1="113" x2="211" transform="translate(573.5 568.5)"/>
      <line id="Line_79" data-name="Line 79" class="cls-6" x1="148" y2="184" transform="translate(326.5 584.5)"/>
      <line id="Line_80" data-name="Line 80" class="cls-6" x1="123" y1="109" transform="translate(190.5 659.5)"/>
      <line id="Line_81" data-name="Line 81" class="cls-6" x1="211" y2="24" transform="translate(102.5 775.5)"/>
      <line id="Line_82" data-name="Line 82" class="cls-6" x1="38" y1="252" transform="translate(40.5 535.5)"/>
      <line id="Line_83" data-name="Line 83" class="cls-6" x1="43" y2="26" transform="translate(-12.5 528.5)"/>
      <line id="Line_84" data-name="Line 84" class="cls-6" x2="120" y2="100" transform="translate(47.5 528.5)"/>
      <line id="Line_85" data-name="Line 85" class="cls-6" x2="85" y2="176" transform="translate(326.5 775.5)"/>
    </g>
    <g id="Layer_1_nodes" data-name="Layer 1 nodes">
      <g id="Ellipse_1" data-name="Ellipse 1" class="cls-7" transform="translate(1758 129)">
        <circle class="cls-8" cx="20" cy="20" r="20"/>
        <circle class="cls-9" cx="20" cy="20" r="18.5"/>
      </g>
      <g id="Ellipse_10" data-name="Ellipse 10" class="cls-7" transform="translate(66 786)">
        <circle class="cls-8" cx="20" cy="20" r="20"/>
        <circle class="cls-9" cx="20" cy="20" r="18.5"/>
      </g>
      <g id="Ellipse_11" data-name="Ellipse 11" class="cls-7" transform="translate(394 948)">
        <circle class="cls-8" cx="20" cy="20" r="20"/>
        <circle class="cls-9" cx="20" cy="20" r="18.5"/>
      </g>
      <g id="Ellipse_2" data-name="Ellipse 2" class="cls-7" transform="translate(1541 311)">
        <circle class="cls-8" cx="20" cy="20" r="20"/>
        <circle class="cls-9" cx="20" cy="20" r="18.5"/>
      </g>
      <g id="Ellipse_3" data-name="Ellipse 3" class="cls-7" transform="translate(940 866)">
        <circle class="cls-8" cx="20" cy="20" r="20"/>
        <circle class="cls-9" cx="20" cy="20" r="18.5"/>
      </g>
      <g id="Ellipse_4" data-name="Ellipse 4" class="cls-7" transform="translate(1347 948)">
        <circle class="cls-8" cx="20" cy="20" r="20"/>
        <circle class="cls-9" cx="20" cy="20" r="18.5"/>
      </g>
      <g id="Ellipse_5" data-name="Ellipse 5" class="cls-7" transform="translate(1664 826)">
        <circle class="cls-8" cx="20" cy="20" r="20"/>
        <circle class="cls-9" cx="20" cy="20" r="18.5"/>
      </g>
      <g id="Ellipse_6" data-name="Ellipse 6" class="cls-7" transform="translate(1844 677)">
        <circle class="cls-8" cx="20" cy="20" r="20"/>
        <circle class="cls-9" cx="20" cy="20" r="18.5"/>
      </g>
      <g id="Ellipse_7" data-name="Ellipse 7" class="cls-7" transform="translate(1194 566)">
        <circle class="cls-8" cx="20" cy="20" r="20"/>
        <circle class="cls-9" cx="20" cy="20" r="18.5"/>
      </g>
      <g id="Ellipse_32" data-name="Ellipse 32" class="cls-7" transform="translate(155 626)">
        <circle class="cls-8" cx="20" cy="20" r="20"/>
        <circle class="cls-9" cx="20" cy="20" r="18.5"/>
      </g>
      <g id="Ellipse_33" data-name="Ellipse 33" class="cls-7" transform="translate(1111 60)">
        <circle class="cls-8" cx="20" cy="20" r="20"/>
        <circle class="cls-9" cx="20" cy="20" r="18.5"/>
      </g>
      <g id="Ellipse_29" data-name="Ellipse 29" class="cls-7" transform="translate(540 677)">
        <circle class="cls-8" cx="20" cy="20" r="20"/>
        <circle class="cls-9" cx="20" cy="20" r="18.5"/>
      </g>
      <g id="Ellipse_30" data-name="Ellipse 30" class="cls-7" transform="translate(900 606)">
        <circle class="cls-8" cx="20" cy="20" r="20"/>
        <circle class="cls-9" cx="20" cy="20" r="18.5"/>
      </g>
      <g id="Ellipse_31" data-name="Ellipse 31" class="cls-7" transform="translate(940 261)">
        <circle class="cls-8" cx="20" cy="20" r="20"/>
        <circle class="cls-9" cx="20" cy="20" r="18.5"/>
      </g>
      <g id="Ellipse_8" data-name="Ellipse 8" class="cls-7" transform="translate(1387 149)">
        <circle class="cls-8" cx="20" cy="20" r="20"/>
        <circle class="cls-9" cx="20" cy="20" r="18.5"/>
      </g>
      <g id="Ellipse_9" data-name="Ellipse 9" class="cls-7" transform="translate(1664 415)">
        <circle class="cls-8" cx="20" cy="20" r="20"/>
        <circle class="cls-9" cx="20" cy="20" r="18.5"/>
      </g>
    </g>
    <g id="Layer_2_nodes" data-name="Layer 2 nodes">
      <g id="Ellipse_12" data-name="Ellipse 12" class="cls-7" transform="translate(1405 804)">
        <circle class="cls-8" cx="10" cy="10" r="10"/>
        <circle class="cls-9" cx="10" cy="10" r="8.5"/>
      </g>
      <g id="Ellipse_20" data-name="Ellipse 20" class="cls-7" transform="translate(1817 493)">
        <circle class="cls-8" cx="10" cy="10" r="10"/>
        <circle class="cls-9" cx="10" cy="10" r="8.5"/>
      </g>
      <g id="Ellipse_26" data-name="Ellipse 26" class="cls-7" transform="translate(1180 319)">
        <circle class="cls-8" cx="10" cy="10" r="10"/>
        <circle class="cls-9" cx="10" cy="10" r="8.5"/>
      </g>
      <g id="Ellipse_27" data-name="Ellipse 27" class="cls-7" transform="translate(1587 12)">
        <circle class="cls-8" cx="10" cy="10" r="10"/>
        <circle class="cls-9" cx="10" cy="10" r="8.5"/>
      </g>
      <g id="Ellipse_28" data-name="Ellipse 28" class="cls-7" transform="translate(1768 97)">
        <circle class="cls-8" cx="10" cy="10" r="10"/>
        <circle class="cls-9" cx="10" cy="10" r="8.5"/>
      </g>
      <g id="Ellipse_21" data-name="Ellipse 21" class="cls-7" transform="translate(110 978)">
        <circle class="cls-8" cx="10" cy="10" r="10"/>
        <circle class="cls-9" cx="10" cy="10" r="8.5"/>
      </g>
      <g id="Ellipse_22" data-name="Ellipse 22" class="cls-7" transform="translate(907 1038)">
        <circle class="cls-8" cx="10" cy="10" r="10"/>
        <circle class="cls-9" cx="10" cy="10" r="8.5"/>
      </g>
      <g id="Ellipse_23" data-name="Ellipse 23" class="cls-7" transform="translate(542 873)">
        <circle class="cls-8" cx="10" cy="10" r="10"/>
        <circle class="cls-9" cx="10" cy="10" r="8.5"/>
      </g>
      <g id="Ellipse_24" data-name="Ellipse 24" class="cls-7" transform="translate(781 998)">
        <circle class="cls-8" cx="10" cy="10" r="10"/>
        <circle class="cls-9" cx="10" cy="10" r="8.5"/>
      </g>
      <g id="Ellipse_25" data-name="Ellipse 25" class="cls-7" transform="translate(1005 978)">
        <circle class="cls-8" cx="10" cy="10" r="10"/>
        <circle class="cls-9" cx="10" cy="10" r="8.5"/>
      </g>
      <g id="Ellipse_34" data-name="Ellipse 34" class="cls-7" transform="translate(474 576)">
        <circle class="cls-8" cx="10" cy="10" r="10"/>
        <circle class="cls-9" cx="10" cy="10" r="8.5"/>
      </g>
      <g id="Ellipse_42" data-name="Ellipse 42" class="cls-7" transform="translate(781 556)">
        <circle class="cls-8" cx="10" cy="10" r="10"/>
        <circle class="cls-9" cx="10" cy="10" r="8.5"/>
      </g>
      <g id="Ellipse_43" data-name="Ellipse 43" class="cls-7" transform="translate(970 480)">
        <circle class="cls-8" cx="10" cy="10" r="10"/>
        <circle class="cls-9" cx="10" cy="10" r="8.5"/>
      </g>
      <g id="Ellipse_38" data-name="Ellipse 38" class="cls-7" transform="translate(311 763)">
        <circle class="cls-8" cx="10" cy="10" r="10"/>
        <circle class="cls-9" cx="10" cy="10" r="8.5"/>
      </g>
      <g id="Ellipse_39" data-name="Ellipse 39" class="cls-7" transform="translate(30 520)">
        <circle class="cls-8" cx="10" cy="10" r="10"/>
        <circle class="cls-9" cx="10" cy="10" r="8.5"/>
      </g>
      <g id="Ellipse_40" data-name="Ellipse 40" class="cls-7" transform="translate(885 47)">
        <circle class="cls-8" cx="10" cy="10" r="10"/>
        <circle class="cls-9" cx="10" cy="10" r="8.5"/>
      </g>
      <g id="Ellipse_41" data-name="Ellipse 41" class="cls-7" transform="translate(1220 125)">
        <circle class="cls-8" cx="10" cy="10" r="10"/>
        <circle class="cls-9" cx="10" cy="10" r="8.5"/>
      </g>
      <g id="Ellipse_37" data-name="Ellipse 37" class="cls-7" transform="translate(781 743)">
        <circle class="cls-8" cx="10" cy="10" r="10"/>
        <circle class="cls-9" cx="10" cy="10" r="8.5"/>
      </g>
      <g id="Ellipse_13" data-name="Ellipse 13" class="cls-7" transform="translate(1495 677)">
        <circle class="cls-8" cx="10" cy="10" r="10"/>
        <circle class="cls-9" cx="10" cy="10" r="8.5"/>
      </g>
      <g id="Ellipse_14" data-name="Ellipse 14" class="cls-7" transform="translate(1817 887)">
        <circle class="cls-8" cx="10" cy="10" r="10"/>
        <circle class="cls-9" cx="10" cy="10" r="8.5"/>
      </g>
      <g id="Ellipse_15" data-name="Ellipse 15" class="cls-7" transform="translate(1450 994)">
        <circle class="cls-8" cx="10" cy="10" r="10"/>
        <circle class="cls-9" cx="10" cy="10" r="8.5"/>
      </g>
      <g id="Ellipse_16" data-name="Ellipse 16" class="cls-7" transform="translate(1527 994)">
        <circle class="cls-8" cx="10" cy="10" r="10"/>
        <circle class="cls-9" cx="10" cy="10" r="8.5"/>
      </g>
      <g id="Ellipse_17" data-name="Ellipse 17" class="cls-7" transform="translate(1160 814)">
        <circle class="cls-8" cx="10" cy="10" r="10"/>
        <circle class="cls-9" cx="10" cy="10" r="8.5"/>
      </g>
      <g id="Ellipse_18" data-name="Ellipse 18" class="cls-7" transform="translate(1577 612)">
        <circle class="cls-8" cx="10" cy="10" r="10"/>
        <circle class="cls-9" cx="10" cy="10" r="8.5"/>
      </g>
      <g id="Ellipse_19" data-name="Ellipse 19" class="cls-7" transform="translate(1405 503)">
        <circle class="cls-8" cx="10" cy="10" r="10"/>
        <circle class="cls-9" cx="10" cy="10" r="8.5"/>
      </g>
    </g>
  </g>
</svg>
